<?xml version="1.0" encoding="utf-8"?>
<!-- Generator: Adobe Illustrator 25.0.0, SVG Export Plug-In . SVG Version: 6.00 Build 0)  -->
<svg version="1.1" id="레이어_1" xmlns="http://www.w3.org/2000/svg" xmlns:xlink="http://www.w3.org/1999/xlink" x="0px"
	 y="0px" viewBox="0 0 283.46 85.04" style="enable-background:new 0 0 283.46 85.04;" xml:space="preserve">
<style type="text/css">
	.st0{fill:#1F1E1D;}
</style>
<g>
	<path class="st0" d="M80.54,43.88c0.49-0.55,0.94-0.73,1.37-0.54c0.43,0.19,0.4,0.68-0.09,1.45c-0.79,1.22-1.74,2.66-2.83,4.32
		c-1.1,1.66-2.3,3.24-3.61,4.73c-1.31,1.49-2.71,2.73-4.2,3.69c-1.49,0.97-3,1.37-4.52,1.2c-0.85-0.05-1.49-0.28-1.92-0.66
		c-0.43-0.39-0.73-0.79-0.91-1.2c-0.18-0.42-0.27-0.78-0.27-1.08c0-0.3-0.03-0.43-0.09-0.37c-0.49,0.72-1.22,1.45-2.19,2.2
		c-0.97,0.75-1.98,1.12-3.01,1.12c-0.85,0-1.61-0.19-2.28-0.58c-0.67-0.39-1.16-1.05-1.46-1.99c-0.37-1.33-0.3-2.92,0.18-4.77
		c0.49-1.86,1.31-3.63,2.47-5.31c1.16-1.69,2.62-3.07,4.38-4.15c1.77-1.08,3.75-1.48,5.94-1.2c0.73,0.11,1.45,0.24,2.15,0.37
		c0.7,0.14,1.32,0.43,1.87,0.87c0.67,0.55,1.11,1.05,1.32,1.5c0.21,0.44,0.26,0.75,0.14,0.91c0.85,0.17,1.1,0.58,0.73,1.25
		l-1.83,3.49c-0.49,0.89-0.94,1.76-1.37,2.62c-0.43,0.86-0.81,1.63-1.14,2.33c-0.33,0.69-0.56,1.26-0.68,1.7
		c-0.12,0.44-0.09,0.72,0.09,0.83c0.49,0.33,1.22,0.1,2.19-0.71c0.97-0.8,2.04-1.88,3.2-3.24c1.16-1.36,2.3-2.84,3.43-4.44
		C78.7,46.6,79.69,45.16,80.54,43.88z M67.39,42.31c-0.97,0.11-1.92,0.54-2.83,1.29c-0.91,0.75-1.75,1.66-2.51,2.74
		c-0.76,1.08-1.42,2.24-1.96,3.49c-0.55,1.25-0.96,2.4-1.23,3.45c-0.27,1.05-0.38,1.92-0.32,2.62c0.06,0.69,0.37,1.07,0.91,1.12
		c0.55,0.06,1.34-0.47,2.37-1.58c1.03-1.11,2.06-2.37,3.06-3.78c1-1.41,1.86-2.78,2.56-4.11c0.7-1.33,1.02-2.16,0.96-2.49
		c-0.06-0.17,0.3-0.35,1.1-0.54c0.79-0.19,1.58-0.26,2.38-0.21c-0.49-0.39-1.05-0.84-1.69-1.37C69.53,42.4,68.6,42.19,67.39,42.31z"
		/>
	<path class="st0" d="M113.42,54.6c0,0.78,0.35,1.38,1.05,1.83c0.7,0.44,1.42,0.61,2.15,0.5c1.28-0.22,2.51-0.69,3.7-1.41
		c1.19-0.72,2.28-1.55,3.29-2.49c1-0.94,1.9-1.92,2.69-2.95c0.79-1.02,1.46-1.95,2.01-2.78c0.49-0.72,0.94-1.44,1.37-2.16
		c0.42-0.72,0.81-1.26,1.14-1.62c0.33-0.36,0.56-0.48,0.68-0.37c0.12,0.11,0.09,0.66-0.09,1.66c0,0.11-0.18,0.53-0.55,1.25
		c-0.36,0.72-0.9,1.59-1.6,2.62c-0.7,1.03-1.52,2.13-2.47,3.32c-0.94,1.19-2.01,2.28-3.2,3.28c-1.19,1-2.48,1.83-3.88,2.49
		c-1.4,0.66-2.86,0.97-4.39,0.91c-2.25-0.05-3.84-0.55-4.75-1.49c-0.91-0.94-1.37-2.13-1.37-3.57c0-1.44,0.35-2.93,1.05-4.49
		c0.7-1.55,1.61-2.95,2.74-4.19c1.13-1.25,2.43-2.27,3.93-3.07c1.49-0.8,3.03-1.2,4.61-1.2c1.22,0,2.22,0.24,3.01,0.71
		c0.79,0.47,1.19,1.15,1.19,2.04c0,0.94-0.24,1.83-0.73,2.66c-0.49,0.83-1.13,1.61-1.92,2.33c-0.79,0.72-1.72,1.36-2.79,1.91
		c-1.07,0.55-2.15,1.03-3.24,1.41c-0.49,0.17-1.05,0.32-1.69,0.46c-0.64,0.14-1.17,0.12-1.6-0.04
		C113.54,52.77,113.42,53.6,113.42,54.6z M117.99,46.29c-0.79,0.83-1.49,1.62-2.1,2.37c-0.61,0.75-1.13,1.51-1.55,2.28
		c0.49-0.17,1.06-0.33,1.74-0.5c0.55-0.17,1.22-0.43,2.01-0.79c0.79-0.36,1.57-0.82,2.33-1.37c0.76-0.55,1.45-1.13,2.06-1.74
		c0.61-0.61,1-1.25,1.19-1.91c0.18-0.66,0.14-1.08-0.14-1.25c-0.27-0.17-0.68-0.14-1.23,0.08c-0.55,0.22-1.2,0.58-1.96,1.08
		C119.56,45.05,118.78,45.63,117.99,46.29z"/>
	<path class="st0" d="M139,26.86c0.91,0,1.67,0.25,2.28,0.75c0.61,0.5,0.97,1.47,1.1,2.91c-0.06,1.66-0.47,3.42-1.23,5.27
		c-0.76,1.86-2,3.59-3.7,5.19l-2.56,2.33c-0.3,0.39-0.91,1.47-1.83,3.24c-0.91,1.77-1.64,3.29-2.19,4.57
		c-0.55,1.27-1.02,2.42-1.42,3.45c-0.4,1.02-0.62,1.79-0.68,2.28h0.27c0.3,0.5,1.4,0.08,3.29-1.25c1.89-1.33,4.57-5.15,8.04-11.46
		c0-0.17,0.01-0.3,0.05-0.42c0.03-0.11,0.35-0.22,0.96-0.33c0.61-0.11,0.61,0.46,0,1.7c-0.61,1.25-1.23,2.41-1.87,3.49
		c-0.64,1.08-1.37,2.23-2.19,3.45c-0.82,1.22-1.86,2.45-3.11,3.7c-1.25,1.25-2.44,2.08-3.56,2.49c-1.13,0.42-2.1,0.59-2.92,0.54
		c-0.82-0.05-1.52-0.3-2.1-0.75c-0.58-0.44-0.84-1.08-0.78-1.91c0-0.33,0.03-0.66,0.09-1l0.37-1.16l2.92-7.14
		c0.55-1.38,1.14-2.78,1.78-4.19c0.64-1.41,1.22-2.74,1.74-3.99c0.52-1.25,0.97-2.31,1.37-3.2c0.4-0.88,0.65-1.49,0.78-1.83
		l0.91-2.41c0.37-1,0.9-1.96,1.6-2.91C137.1,27.33,137.96,26.86,139,26.86z M135.62,40.98c0.91-0.77,1.87-1.9,2.88-3.36
		c1-1.47,1.81-3.78,2.42-6.93c-0.24-0.5-0.46-0.94-0.64-1.33v0.25L135.62,40.98z"/>
	<path class="st0" d="M148.41,26.86c0.91,0,1.67,0.25,2.28,0.75c0.61,0.5,0.97,1.47,1.1,2.91c-0.06,1.66-0.47,3.42-1.23,5.27
		c-0.76,1.86-2,3.59-3.7,5.19l-2.56,2.33c-0.3,0.39-0.91,1.47-1.83,3.24c-0.91,1.77-1.64,3.29-2.19,4.57
		c-0.55,1.27-1.02,2.42-1.42,3.45c-0.4,1.02-0.62,1.79-0.68,2.28h0.27c0.3,0.5,1.4,0.08,3.29-1.25c1.89-1.33,4.57-5.15,8.04-11.46
		c0-0.17,0.01-0.3,0.05-0.42c0.03-0.11,0.35-0.22,0.96-0.33c0.61-0.11,0.61,0.46,0,1.7c-0.61,1.25-1.23,2.41-1.87,3.49
		c-0.64,1.08-1.37,2.23-2.19,3.45c-0.82,1.22-1.86,2.45-3.11,3.7c-1.25,1.25-2.44,2.08-3.56,2.49c-1.13,0.42-2.1,0.59-2.92,0.54
		c-0.82-0.05-1.52-0.3-2.1-0.75c-0.58-0.44-0.84-1.08-0.78-1.91c0-0.33,0.03-0.66,0.09-1l0.37-1.16l2.92-7.14
		c0.55-1.38,1.14-2.78,1.78-4.19c0.64-1.41,1.22-2.74,1.74-3.99c0.52-1.25,0.97-2.31,1.37-3.2c0.4-0.88,0.65-1.49,0.78-1.83
		l0.91-2.41c0.37-1,0.9-1.96,1.6-2.91C146.51,27.33,147.37,26.86,148.41,26.86z M145.03,40.98c0.91-0.77,1.87-1.9,2.88-3.36
		c1-1.47,1.81-3.78,2.42-6.93c-0.24-0.5-0.46-0.94-0.64-1.33v0.25L145.03,40.98z"/>
	<path class="st0" d="M147.68,54.6c0,0.78,0.35,1.38,1.05,1.83c0.7,0.44,1.42,0.61,2.15,0.5c1.28-0.22,2.51-0.69,3.7-1.41
		c1.19-0.72,2.28-1.55,3.29-2.49c1-0.94,1.9-1.92,2.69-2.95c0.79-1.02,1.46-1.95,2.01-2.78c0.49-0.72,0.94-1.44,1.37-2.16
		c0.43-0.72,0.81-1.26,1.14-1.62c0.33-0.36,0.56-0.48,0.68-0.37c0.12,0.11,0.09,0.66-0.09,1.66c0,0.11-0.18,0.53-0.55,1.25
		c-0.36,0.72-0.9,1.59-1.6,2.62c-0.7,1.03-1.52,2.13-2.47,3.32c-0.94,1.19-2.01,2.28-3.2,3.28c-1.19,1-2.48,1.83-3.88,2.49
		c-1.4,0.66-2.86,0.97-4.39,0.91c-2.25-0.05-3.84-0.55-4.75-1.49c-0.91-0.94-1.37-2.13-1.37-3.57c0-1.44,0.35-2.93,1.05-4.49
		c0.7-1.55,1.61-2.95,2.74-4.19c1.13-1.25,2.43-2.27,3.93-3.07c1.49-0.8,3.03-1.2,4.61-1.2c1.22,0,2.22,0.24,3.01,0.71
		c0.79,0.47,1.19,1.15,1.19,2.04c0,0.94-0.24,1.83-0.73,2.66c-0.49,0.83-1.13,1.61-1.92,2.33c-0.79,0.72-1.72,1.36-2.79,1.91
		c-1.07,0.55-2.15,1.03-3.24,1.41c-0.49,0.17-1.05,0.32-1.69,0.46c-0.64,0.14-1.17,0.12-1.6-0.04
		C147.8,52.77,147.68,53.6,147.68,54.6z M152.25,46.29c-0.79,0.83-1.49,1.62-2.1,2.37c-0.61,0.75-1.13,1.51-1.55,2.28
		c0.49-0.17,1.06-0.33,1.74-0.5c0.55-0.17,1.22-0.43,2.01-0.79c0.79-0.36,1.57-0.82,2.33-1.37c0.76-0.55,1.45-1.13,2.06-1.74
		c0.61-0.61,1-1.25,1.19-1.91c0.18-0.66,0.14-1.08-0.14-1.25c-0.27-0.17-0.68-0.14-1.23,0.08c-0.55,0.22-1.2,0.58-1.96,1.08
		C153.81,45.05,153.04,45.63,152.25,46.29z"/>
	<path class="st0" d="M244.6,44.05c0.49-0.55,0.94-0.73,1.37-0.54c0.43,0.2,0.4,0.68-0.09,1.45c-0.79,1.05-1.71,2.4-2.74,4.03
		c-1.04,1.63-2.18,3.2-3.43,4.69c-1.25,1.49-2.6,2.75-4.07,3.78c-1.46,1.03-3.01,1.45-4.66,1.29c-0.85-0.05-1.49-0.28-1.92-0.66
		c-0.43-0.39-0.73-0.79-0.91-1.2c-0.18-0.42-0.27-0.78-0.27-1.08c0-0.3-0.03-0.43-0.09-0.37c-0.49,0.72-1.22,1.45-2.19,2.2
		c-0.97,0.75-1.98,1.12-3.01,1.12c-0.85,0-1.61-0.19-2.28-0.58c-0.67-0.39-1.16-1.05-1.46-1.99c-0.24-0.88-0.09-2.12,0.46-3.7
		c0.55-1.58,1.19-3.16,1.92-4.73c0.73-1.58,1.35-2.98,1.87-4.19c0.52-1.22,0.62-1.96,0.32-2.24c-0.24-0.17-0.09-0.33,0.46-0.5
		c0.55-0.17,1.16-0.25,1.83-0.25c0.67,0,1.29,0.12,1.87,0.37c0.58,0.25,0.81,0.71,0.68,1.37c-0.31,1.33-0.82,2.84-1.55,4.53
		c-0.73,1.69-1.42,3.28-2.06,4.78c-0.64,1.49-1.1,2.75-1.37,3.78c-0.27,1.03-0.11,1.57,0.5,1.62c0.37,0.06,0.88-0.28,1.55-1
		c0.67-0.72,1.42-1.62,2.24-2.7c0.82-1.08,1.64-2.26,2.47-3.53c0.82-1.27,1.58-2.49,2.28-3.65c0.7-1.16,1.25-2.19,1.64-3.07
		c0.4-0.89,0.56-1.44,0.5-1.66c-0.06-0.17,0.24-0.33,0.91-0.5c0.67-0.17,1.37-0.26,2.1-0.29c0.73-0.03,1.37,0.06,1.92,0.25
		c0.55,0.2,0.67,0.57,0.36,1.12c-0.91,1.77-1.81,3.52-2.69,5.23c-0.88,1.72-1.64,3.25-2.28,4.61c-0.64,1.36-1.13,2.48-1.46,3.36
		c-0.34,0.89-0.41,1.36-0.23,1.41c0.67,0.28,1.49,0.01,2.47-0.79c0.97-0.8,1.98-1.88,3.02-3.24c1.03-1.36,2.08-2.81,3.15-4.36
		C242.79,46.65,243.75,45.27,244.6,44.05z"/>
	<path class="st0" d="M241.31,49.45l4.11-7.31c0.24-1,0.73-1.91,1.46-2.74c0.73-0.83,1.86-1.38,3.38-1.66
		c1.16-0.22,2.19-0.03,3.11,0.58c0.91,0.61,1.25,1.3,1,2.08c-0.24,0.61-0.5,1-0.78,1.16c-0.27,0.17-0.41-0.14-0.41-0.91
		c0-0.61-0.18-0.96-0.55-1.04c-0.37-0.08-0.73,0.1-1.1,0.54c-0.31,0.44-0.55,1.16-0.73,2.16c-0.18,1-0.24,2.05-0.18,3.16
		c0.06,0.44,0.09,0.97,0.09,1.58c0,0.61-0.03,1.05-0.09,1.33c1.1-0.11,2.09-0.35,2.97-0.71c0.88-0.36,1.64-0.76,2.28-1.2
		c0.64-0.44,1.16-0.91,1.55-1.41c0.39-0.5,0.65-0.94,0.78-1.33c0.12-0.39,0.27-0.73,0.46-1.04c0.18-0.3,0.35-0.48,0.5-0.54
		c0.15-0.05,0.27,0.04,0.37,0.29c0.09,0.25,0.11,0.71,0.05,1.37c0,0.39-0.2,0.89-0.59,1.5c-0.4,0.61-0.96,1.22-1.69,1.83
		c-0.73,0.61-1.63,1.16-2.7,1.66c-1.07,0.5-2.33,0.83-3.79,1l-0.09,0.17c0,1.38-0.21,2.71-0.64,3.99c-0.43,1.27-1.04,2.34-1.83,3.2
		c-0.79,0.86-1.77,1.47-2.92,1.83c-1.16,0.36-2.44,0.32-3.84-0.12c-1.7-0.5-2.53-1.72-2.47-3.65l-0.37,0.42
		c-0.3,0.39-0.53,0.47-0.68,0.25c-0.15-0.22-0.17-0.47-0.05-0.75c0.49-1,1.04-1.95,1.64-2.87
		C240.19,51.32,240.76,50.39,241.31,49.45z M245.88,50.69c-1.52,0.11-2.77,0.62-3.75,1.54c-0.97,0.91-1.52,1.84-1.64,2.78
		c-0.12,0.78,0.05,1.43,0.5,1.95c0.46,0.53,1.29,0.73,2.51,0.62c0.61-0.05,1.06-0.39,1.37-1c0.3-0.61,0.53-1.3,0.68-2.08
		c0.15-0.78,0.24-1.54,0.27-2.28C245.86,51.48,245.88,50.97,245.88,50.69z M245.97,49.03c0-0.22-0.06-0.55-0.18-1
		c-0.12-0.33-0.23-0.72-0.32-1.16c-0.09-0.44-0.17-0.91-0.23-1.41c-0.37,0.66-0.75,1.36-1.14,2.08c-0.4,0.72-0.84,1.44-1.32,2.16
		c-0.12,0.11-0.2,0.22-0.23,0.33c-0.03,0.11-0.11,0.22-0.23,0.33c0.49-0.28,1.05-0.53,1.69-0.75
		C244.65,49.39,245.3,49.2,245.97,49.03z"/>
	<path class="st0" d="M256.66,54.6c0,0.78,0.35,1.38,1.05,1.83c0.7,0.44,1.42,0.61,2.15,0.5c1.28-0.22,2.51-0.69,3.7-1.41
		c1.19-0.72,2.28-1.55,3.29-2.49c1-0.94,1.9-1.92,2.69-2.95c0.79-1.02,1.46-1.95,2.01-2.78c0.49-0.72,0.94-1.44,1.37-2.16
		c0.43-0.72,0.81-1.26,1.14-1.62c0.33-0.36,0.56-0.48,0.68-0.37c0.12,0.11,0.09,0.66-0.09,1.66c0,0.11-0.18,0.53-0.55,1.25
		c-0.36,0.72-0.9,1.59-1.6,2.62c-0.7,1.03-1.52,2.13-2.47,3.32c-0.94,1.19-2.01,2.28-3.2,3.28c-1.19,1-2.48,1.83-3.88,2.49
		c-1.4,0.66-2.86,0.97-4.39,0.91c-2.25-0.05-3.84-0.55-4.75-1.49c-0.91-0.94-1.37-2.13-1.37-3.57c0-1.44,0.35-2.93,1.05-4.49
		c0.7-1.55,1.61-2.95,2.74-4.19c1.13-1.25,2.43-2.27,3.93-3.07c1.49-0.8,3.03-1.2,4.61-1.2c1.22,0,2.22,0.24,3.01,0.71
		c0.79,0.47,1.19,1.15,1.19,2.04c0,0.94-0.24,1.83-0.73,2.66c-0.49,0.83-1.13,1.61-1.92,2.33c-0.79,0.72-1.72,1.36-2.79,1.91
		c-1.07,0.55-2.15,1.03-3.24,1.41c-0.49,0.17-1.05,0.32-1.69,0.46c-0.64,0.14-1.17,0.12-1.6-0.04
		C256.78,52.77,256.66,53.6,256.66,54.6z M261.23,46.29c-0.79,0.83-1.49,1.62-2.1,2.37c-0.61,0.75-1.13,1.51-1.55,2.28
		c0.49-0.17,1.06-0.33,1.74-0.5c0.55-0.17,1.22-0.43,2.01-0.79c0.79-0.36,1.57-0.82,2.33-1.37c0.76-0.55,1.45-1.13,2.06-1.74
		c0.61-0.61,1-1.25,1.19-1.91c0.18-0.66,0.14-1.08-0.14-1.25c-0.27-0.17-0.68-0.14-1.23,0.08c-0.55,0.22-1.2,0.58-1.96,1.08
		C262.79,45.05,262.02,45.63,261.23,46.29z"/>
	<path class="st0" d="M49.8,52.73c0.64-1.63,1.4-3.49,2.28-5.56c0.88-2.08,1.81-4.22,2.79-6.44c0.97-2.21,1.83-4.15,2.56-5.81
		c0.43-1.05,0.88-2.16,1.37-3.32c0.49-1.16,0.67-2.3,0.55-3.41c-0.12-0.78-0.52-1.4-1.19-1.87c-0.67-0.47-1.45-0.69-2.33-0.66
		c-0.88,0.03-1.81,0.33-2.79,0.91c-0.97,0.58-1.83,1.54-2.56,2.87c-1.71,3.05-3.15,5.68-4.34,7.89c-1.19,2.21-2.22,4.15-3.11,5.81
		c-0.88,1.66-1.69,3.11-2.42,4.36c-0.73,1.25-1.49,2.37-2.28,3.36c0.06-0.28,0.12-0.47,0.18-0.58c0.06-0.11,0.12-0.28,0.18-0.5
		c0.61-1.16,1.32-2.68,2.15-4.57c0.82-1.88,1.61-3.75,2.38-5.61c0.76-1.85,1.43-3.53,2.01-5.02c0.58-1.5,0.96-2.44,1.14-2.82
		c0.43-0.89,0.5-1.76,0.23-2.62c-0.27-0.86-0.76-1.51-1.46-1.95c-0.7-0.44-1.55-0.58-2.56-0.41c-1,0.17-2.03,0.78-3.06,1.83
		c-0.67,0.66-1.39,1.49-2.15,2.49c-0.76,1-1.52,2.01-2.28,3.03c-0.76,1.03-1.51,2.05-2.24,3.07c-0.73,1.03-1.4,1.9-2.01,2.62
		l-2.01,2.57c0.3-0.66,0.7-1.55,1.19-2.66c0.49-1.11,0.96-2.33,1.42-3.65c0.46-1.33,0.82-2.68,1.1-4.07
		c0.27-1.38,0.38-2.68,0.32-3.9c-0.12-1.11-0.38-2.03-0.78-2.78c-0.4-0.75-0.9-1.36-1.51-1.83c-0.61-0.47-1.31-0.83-2.1-1.08
		c-0.79-0.25-1.61-0.43-2.47-0.54c-1.64-0.22-3.46,0.04-5.44,0.79c-1.98,0.75-3.84,1.91-5.57,3.49c-1.74,1.58-3.21,3.54-4.43,5.9
		c-1.22,2.35-1.86,5-1.92,7.93c0.12,1.33,0.63,2.41,1.51,3.24c0.88,0.83,1.96,1.22,3.24,1.16c0.85,0,1.42-0.08,1.69-0.25
		c0.27-0.17,0.38-0.34,0.32-0.54c-0.06-0.19-0.26-0.37-0.59-0.54c-0.34-0.17-0.69-0.25-1.05-0.25c-1.22-0.05-2.01-0.58-2.38-1.58
		c-0.36-1-0.4-2.21-0.09-3.65c0.31-1.44,0.88-2.99,1.74-4.65c0.85-1.66,1.89-3.18,3.11-4.57c1.22-1.38,2.56-2.5,4.02-3.36
		c1.46-0.86,2.98-1.23,4.57-1.12c1.34,0.11,2.19,0.53,2.56,1.25c0.37,0.72,0.49,1.86,0.37,3.41c-0.12,2.55-0.73,5.33-1.83,8.35
		c-1.1,3.02-2.28,5.95-3.56,8.8c-1.28,2.85-2.42,5.48-3.43,7.89c-1,2.41-1.51,4.28-1.51,5.61c0.06,1.44,0.41,2.49,1.05,3.16
		c0.64,0.66,1.48,0.97,2.51,0.91c0.73-0.06,1.19-0.12,1.37-0.21c0.18-0.08,0.24-0.18,0.18-0.29c-0.06-0.11-0.2-0.21-0.41-0.29
		c-0.21-0.08-0.35-0.12-0.41-0.12c-0.3,0-0.52-0.21-0.64-0.62c-0.12-0.42-0.06-1.04,0.18-1.87c0.3-1.05,1.11-2.87,2.42-5.44
		c1.31-2.57,3.06-5.52,5.25-8.84c0.91-1.33,1.9-2.75,2.97-4.28c1.06-1.52,2.13-3.02,3.2-4.48c1.06-1.47,2.1-2.82,3.11-4.07
		c1-1.25,1.93-2.28,2.79-3.11c0.43-0.39,0.78-0.55,1.05-0.5c0.27,0.06,0.29,0.47,0.04,1.25c-0.43,1.55-1.11,3.46-2.05,5.73
		c-0.95,2.27-1.87,4.46-2.79,6.56l-3.29,8.3c-0.18,0.39-0.27,0.82-0.27,1.29c0,0.47,0.11,0.89,0.32,1.25c0.21,0.36,0.55,0.66,1,0.91
		c0.46,0.25,1.05,0.37,1.78,0.37c1.03-0.05,1.75-0.39,2.15-1c0.4-0.61,0.84-1.3,1.32-2.08c0.85-1.38,1.81-3.04,2.88-4.98
		c1.06-1.94,2.15-3.9,3.24-5.9c1.1-1.99,2.13-3.93,3.11-5.81c0.97-1.88,1.83-3.46,2.56-4.73c0.37-0.72,0.79-1.3,1.28-1.74
		c0.49-0.44,0.88-0.69,1.19-0.75c0.3-0.05,0.49,0.14,0.55,0.58c0.06,0.44-0.12,1.19-0.55,2.24c-0.06,0.06-0.32,0.65-0.78,1.79
		c-0.46,1.13-1.05,2.55-1.78,4.23c-0.73,1.69-1.51,3.54-2.33,5.56c-0.63,1.54-1.22,3.01-1.79,4.43c-0.18,0.45-0.36,0.9-0.54,1.34
		c-0.73,1.83-1.36,3.46-1.87,4.9c-0.52,1.44-0.72,2.58-0.78,3.08c-0.02,0.15-0.02,0.28-0.02,0.41c0.05,0.41,0.03,0.62,0.13,0.99
		c0.16,0.58,0.36,1.13,0.64,1.63c0.69,1.22,1.87,2.03,3.54,2.43c1.09,0.29,2.2,0.44,3.33,0.45c1.13,0.01,2.24-0.02,3.34-0.08
		c0.24-0.03,0.54-0.14,0.91-0.36c0.36-0.22,0.69-0.45,0.96-0.69c0.28-0.25,0.46-0.47,0.55-0.66c0.09-0.19,0.01-0.29-0.22-0.29
		c-1.1,0.3-2.27,0.46-3.5,0.48c-1.23,0.02-2.36-0.15-3.38-0.5c-0.73-0.24-1.27-0.66-1.65-1.23c-0.08-0.12-0.55-0.75-0.42-2.31
		C48.79,55.7,49.16,54.36,49.8,52.73z"/>
	<path class="st0" d="M214.59,52.73c0.64-1.63,1.4-3.49,2.28-5.56c0.88-2.08,1.81-4.22,2.79-6.44c0.97-2.21,1.83-4.15,2.56-5.81
		c0.43-1.05,0.88-2.16,1.37-3.32c0.49-1.16,0.67-2.3,0.55-3.41c-0.12-0.78-0.52-1.4-1.19-1.87c-0.67-0.47-1.45-0.69-2.33-0.66
		c-0.88,0.03-1.81,0.33-2.79,0.91c-0.97,0.58-1.83,1.54-2.56,2.87c-1.71,3.05-3.15,5.68-4.34,7.89c-1.19,2.21-2.22,4.15-3.11,5.81
		c-0.88,1.66-1.69,3.11-2.42,4.36c-0.73,1.25-1.49,2.37-2.28,3.36c0.06-0.28,0.12-0.47,0.18-0.58c0.06-0.11,0.12-0.28,0.18-0.5
		c0.61-1.16,1.32-2.68,2.15-4.57c0.82-1.88,1.61-3.75,2.38-5.61c0.76-1.85,1.43-3.53,2.01-5.02c0.58-1.5,0.96-2.44,1.14-2.82
		c0.43-0.89,0.5-1.76,0.23-2.62c-0.27-0.86-0.76-1.51-1.46-1.95c-0.7-0.44-1.55-0.58-2.56-0.41c-1,0.17-2.03,0.78-3.06,1.83
		c-0.67,0.66-1.39,1.49-2.15,2.49c-0.76,1-1.52,2.01-2.28,3.03c-0.76,1.03-1.51,2.05-2.24,3.07c-0.73,1.03-1.4,1.9-2.01,2.62
		l-2.01,2.57c0.3-0.66,0.7-1.55,1.19-2.66c0.49-1.11,0.96-2.33,1.42-3.65c0.46-1.33,0.82-2.68,1.1-4.07
		c0.27-1.38,0.38-2.68,0.32-3.9c-0.12-1.11-0.38-2.03-0.78-2.78c-0.4-0.75-0.9-1.36-1.51-1.83c-0.61-0.47-1.31-0.83-2.1-1.08
		c-0.79-0.25-1.61-0.43-2.47-0.54c-1.64-0.22-3.46,0.04-5.44,0.79c-1.98,0.75-3.84,1.91-5.57,3.49c-1.74,1.58-3.21,3.54-4.43,5.9
		c-1.22,2.35-1.86,5-1.92,7.93c0.12,1.33,0.63,2.41,1.51,3.24c0.88,0.83,1.96,1.22,3.24,1.16c0.85,0,1.42-0.08,1.69-0.25
		c0.27-0.17,0.38-0.34,0.32-0.54c-0.06-0.19-0.26-0.37-0.59-0.54c-0.34-0.17-0.69-0.25-1.05-0.25c-1.22-0.05-2.01-0.58-2.38-1.58
		c-0.37-1-0.4-2.21-0.09-3.65c0.31-1.44,0.88-2.99,1.74-4.65c0.85-1.66,1.89-3.18,3.11-4.57c1.22-1.38,2.56-2.5,4.02-3.36
		c1.46-0.86,2.98-1.23,4.57-1.12c1.34,0.11,2.19,0.53,2.56,1.25c0.37,0.72,0.49,1.86,0.37,3.41c-0.12,2.55-0.73,5.33-1.83,8.35
		c-1.1,3.02-2.28,5.95-3.56,8.8c-1.28,2.85-2.42,5.48-3.43,7.89c-1,2.41-1.51,4.28-1.51,5.61c0.06,1.44,0.41,2.49,1.05,3.16
		c0.64,0.66,1.48,0.97,2.51,0.91c0.73-0.06,1.19-0.12,1.37-0.21c0.18-0.08,0.24-0.18,0.18-0.29c-0.06-0.11-0.2-0.21-0.41-0.29
		c-0.21-0.08-0.35-0.12-0.41-0.12c-0.3,0-0.52-0.21-0.64-0.62c-0.12-0.42-0.06-1.04,0.18-1.87c0.3-1.05,1.11-2.87,2.42-5.44
		c1.31-2.57,3.06-5.52,5.25-8.84c0.91-1.33,1.9-2.75,2.97-4.28c1.06-1.52,2.13-3.02,3.2-4.48c1.06-1.47,2.1-2.82,3.11-4.07
		c1-1.25,1.93-2.28,2.79-3.11c0.43-0.39,0.78-0.55,1.05-0.5c0.27,0.06,0.29,0.47,0.05,1.25c-0.43,1.55-1.11,3.46-2.05,5.73
		c-0.95,2.27-1.87,4.46-2.79,6.56l-3.29,8.3c-0.18,0.39-0.27,0.82-0.27,1.29c0,0.47,0.11,0.89,0.32,1.25c0.21,0.36,0.55,0.66,1,0.91
		c0.46,0.25,1.05,0.37,1.78,0.37c1.03-0.05,1.75-0.39,2.15-1c0.4-0.61,0.84-1.3,1.32-2.08c0.85-1.38,1.81-3.04,2.88-4.98
		c1.06-1.94,2.15-3.9,3.24-5.9c1.1-1.99,2.13-3.93,3.11-5.81c0.97-1.88,1.83-3.46,2.56-4.73c0.37-0.72,0.79-1.3,1.28-1.74
		c0.49-0.44,0.88-0.69,1.19-0.75c0.3-0.05,0.49,0.14,0.55,0.58c0.06,0.44-0.12,1.19-0.55,2.24c-0.06,0.06-0.32,0.65-0.78,1.79
		c-0.46,1.13-1.05,2.55-1.78,4.23c-0.73,1.69-1.51,3.54-2.33,5.56c-0.63,1.54-1.22,3.01-1.79,4.43c-0.18,0.45-0.36,0.9-0.54,1.34
		c-0.73,1.83-1.36,3.46-1.87,4.9c-0.52,1.44-0.72,2.58-0.78,3.08c-0.02,0.15-0.02,0.28-0.02,0.41c0.05,0.41,0.03,0.62,0.13,0.99
		c0.16,0.58,0.36,1.13,0.64,1.63c0.69,1.22,1.87,2.03,3.54,2.43c1.09,0.29,2.2,0.44,3.33,0.45c1.13,0.01,2.24-0.02,3.34-0.08
		c0.24-0.03,0.54-0.14,0.91-0.36c0.36-0.22,0.69-0.45,0.96-0.69c0.28-0.25,0.46-0.47,0.55-0.66c0.09-0.19,0.01-0.29-0.22-0.29
		c-1.1,0.3-2.27,0.46-3.5,0.48c-1.23,0.02-2.36-0.15-3.38-0.5c-0.74-0.24-1.27-0.66-1.65-1.23c-0.08-0.12-0.55-0.75-0.42-2.31
		C213.59,55.7,213.95,54.36,214.59,52.73z"/>
	<path class="st0" d="M106.99,30.23c-1.44,1.48-3.46,3.91-4.55,5.64c-1.09,1.73-2.11,3.44-3.06,5.15c-0.62,1.05-1.26,2.15-1.92,3.3
		c-0.66,1.15-1.27,2.33-1.82,3.53c-0.56,1.2-1.01,2.41-1.36,3.62c-0.35,1.22-0.52,2.42-0.52,3.6c0,0.63,0.15,1.2,0.46,1.73
		c0.31,0.53,0.87,0.69,1.7,0.49c0.62-0.13,1.19-0.39,1.73-0.76c0.54-0.38,1.04-0.8,1.51-1.26c0.47-0.46,0.9-0.94,1.27-1.45
		c0.37-0.51,0.72-0.98,1.05-1.41c0.54-0.76,1.06-1.53,1.58-2.32c0.51-0.79,1-1.58,1.45-2.37c-0.86-1.28-1.3-2.69-1.3-4.24
		c0-0.39,0.05-0.84,0.15-1.33c0.1-0.49,0.28-0.96,0.52-1.41c0.25-0.44,0.58-0.83,0.99-1.16c0.41-0.33,0.93-0.49,1.54-0.49
		c0.99,0,1.73,0.26,2.22,0.79c0.49,0.53,0.83,1.16,1.02,1.9c0.19,0.74,0.25,1.5,0.19,2.29c-0.06,0.79-0.15,1.43-0.28,1.92
		c-0.29,1.05-0.8,2.1-1.54,3.16c0.58,0.33,1.17,0.6,1.79,0.81c0.62,0.21,1.26,0.4,1.92,0.57c0.16,0.03,0.49,0.07,0.99,0.12
		c0.49,0.05,0.98,0.12,1.45,0.22c0.47,0.1,0.85,0.24,1.14,0.42c0.29,0.18,0.31,0.42,0.06,0.71c-0.21,0.2-0.54,0.3-0.99,0.3
		c-0.45,0-0.95-0.05-1.48-0.15c-0.54-0.1-1.05-0.21-1.54-0.35c-0.49-0.13-0.85-0.23-1.05-0.3c-1.11-0.3-2.14-0.72-3.09-1.28
		c-0.33,0.46-0.7,0.91-1.11,1.36c-0.41,0.44-0.82,0.88-1.24,1.31c-0.54,0.53-1.15,1.12-1.85,1.78c-0.7,0.66-1.46,1.28-2.29,1.87
		c-0.82,0.59-1.7,1.09-2.63,1.5c-0.93,0.41-1.86,0.62-2.81,0.62c-0.95,0-1.75-0.25-2.41-0.74c-0.66-0.49-1.17-1.08-1.54-1.78
		c-0.37-0.69-0.63-1.42-0.77-2.19c-0.14-0.77-0.17-1.44-0.09-2c0.08-1.18,0.39-2.5,0.93-3.94c0.53-1.45,1.15-2.88,1.85-4.31
		c0.7-1.43,1.45-2.8,2.25-4.12c0.8-1.31,1.51-2.45,2.13-3.4c0.7-1.15,1.46-2.29,2.29-3.43c0.82-1.13,2.48-3.04,3.47-4.06
		c0.33-0.33,0.69-0.61,1.08-0.84c0.39-0.23,0.87-0.28,1.45-0.15c0.7,0.17,1.16,0.51,1.39,1.04
		C107.56,29.28,107.45,29.77,106.99,30.23z M105.56,45.75c0.12-0.23,0.31-0.62,0.56-1.18c0.25-0.56,0.46-1.13,0.65-1.73
		c0.19-0.59,0.29-1.13,0.31-1.6c0.02-0.48-0.15-0.76-0.52-0.86c-0.29-0.07-0.55-0.02-0.77,0.15c-0.23,0.17-0.41,0.38-0.56,0.64
		c-0.15,0.26-0.26,0.54-0.34,0.84c-0.08,0.3-0.15,0.53-0.19,0.69c-0.21,1.25-0.02,2.45,0.56,3.6c0.08-0.07,0.13-0.15,0.15-0.25
		C105.43,45.95,105.48,45.85,105.56,45.75z"/>
</g>
</svg>
